<?xml version="1.0" standalone="no"?>
<!DOCTYPE svg PUBLIC "-//W3C//DTD SVG 20010904//EN"
 "http://www.w3.org/TR/2001/REC-SVG-20010904/DTD/svg10.dtd">
<svg version="1.0" xmlns="http://www.w3.org/2000/svg"
 width="250.000000pt" height="202.000000pt" viewBox="0 0 250.000000 202.000000"
 preserveAspectRatio="xMidYMid meet">

<g transform="translate(0.000000,202.000000) scale(0.100000,-0.100000)"
fill="#000000" stroke="none">
<path d="M1906 1151 c-3 -5 2 -15 12 -22 15 -12 16 -12 5 2 -7 9 -10 19 -6 22
3 4 4 7 0 7 -3 0 -8 -4 -11 -9z"/>
<path d="M1945 1121 c-3 -5 -2 -12 3 -15 5 -3 9 1 9 9 0 17 -3 19 -12 6z"/>
<path d="M396 993 c-10 -10 4 -22 19 -16 18 6 20 -13 3 -21 -7 -3 -2 -4 12 -1
14 2 32 0 40 -5 12 -8 10 -10 -10 -11 -17 -1 -19 -3 -7 -6 9 -2 17 -8 17 -13
0 -5 -8 -11 -17 -13 -10 -3 1 -4 25 -4 24 0 37 4 30 8 -6 4 -17 5 -23 2 -6 -4
-6 -1 1 6 9 9 19 8 46 -5 30 -14 34 -21 33 -48 -2 -27 1 -31 26 -33 16 -1 31
2 34 7 4 6 14 6 27 -1 15 -8 17 -13 8 -19 -9 -6 -9 -12 -1 -29 12 -22 31 -29
31 -11 0 6 -7 13 -15 16 -8 4 -13 10 -10 15 3 4 13 5 22 2 11 -4 14 -3 9 5
-12 21 -60 39 -93 36 -18 -1 -30 2 -27 7 3 5 12 9 21 9 26 0 -3 26 -55 51 -26
12 -60 32 -77 44 -35 25 -61 36 -69 28z"/>
<path d="M2013 948 c-94 -62 -91 -60 -75 -65 6 -3 12 -11 12 -19 0 -17 26 -19
33 -1 4 7 6 8 6 1 1 -14 -48 -48 -57 -40 -3 3 0 6 6 6 16 0 15 11 -6 38 l-18
23 -19 -23 -20 -23 25 20 c25 19 25 19 7 0 -10 -11 -25 -20 -35 -20 -9 0 -16
-6 -14 -13 1 -8 -1 -11 -6 -8 -5 3 -19 -2 -31 -10 l-22 -16 21 -23 c15 -16 18
-25 10 -30 -7 -4 -17 -2 -23 4 -9 9 -7 11 8 5 19 -6 19 -6 -1 16 -21 21 -52
20 -38 -1 3 -5 0 -8 -8 -7 -7 2 -12 -3 -10 -10 1 -8 -1 -11 -6 -8 -8 5 -78
-51 -127 -100 -11 -12 -25 -23 -32 -25 -14 -5 -117 -120 -140 -157 -36 -57
-76 -101 -86 -95 -6 3 -7 1 -3 -6 4 -6 -5 -28 -22 -49 -16 -20 -38 -55 -49
-76 l-20 -39 -18 24 c-16 23 -16 18 0 -23 4 -10 3 -18 -3 -18 -6 0 -16 16 -23
35 -7 19 -17 35 -21 35 -4 0 -8 7 -8 15 0 9 -8 28 -18 43 -10 15 -22 34 -27
44 -18 31 -124 165 -165 209 -22 24 -50 56 -62 72 -12 15 -26 27 -32 27 -6 0
-72 -61 -146 -135 -74 -75 -140 -133 -147 -131 -8 3 -10 -1 -6 -11 5 -13 3
-15 -13 -8 -10 4 -26 8 -34 9 -9 1 -22 6 -30 11 -9 5 -8 0 4 -13 10 -12 23
-20 29 -19 7 1 13 -7 15 -18 9 -51 181 -158 317 -197 75 -21 98 -23 365 -23
312 0 343 5 477 65 88 40 214 137 213 165 0 5 -7 2 -14 -8 -8 -10 -16 -15 -18
-10 -3 4 3 16 13 25 13 12 19 13 23 5 3 -7 16 2 34 23 17 19 28 38 26 42 -3 5
-1 8 5 8 14 0 55 72 81 142 21 56 20 85 -2 72 -7 -4 -8 -2 -4 4 4 6 13 9 20 6
19 -7 25 28 33 189 4 100 3 137 -6 137 -6 0 -11 -8 -11 -17 0 -15 -2 -16 -9
-3 -6 8 -7 18 -5 22 12 19 -20 4 -93 -44z m57 17 c0 -2 -10 -9 -22 -15 -22
-11 -22 -10 -4 4 21 17 26 19 26 11z m-4 -50 c-24 -18 -33 -19 -42 -3 -4 7 -3
8 4 4 7 -4 20 -2 29 3 26 15 31 13 9 -4z m34 -55 c0 -5 -4 -10 -10 -10 -5 0
-10 5 -10 10 0 6 5 10 10 10 6 0 10 -4 10 -10z m7 -162 c-3 -8 -6 -5 -6 6 -1
11 2 17 5 13 3 -3 4 -12 1 -19z m-467 -88 c0 -5 -2 -10 -4 -10 -3 0 -8 5 -11
10 -3 6 -1 10 4 10 6 0 11 -4 11 -10z m50 -40 c0 -5 -2 -10 -4 -10 -3 0 -8 5
-11 10 -3 6 -1 10 4 10 6 0 11 -4 11 -10z m378 -15 c-6 -14 -13 -23 -15 -21
-5 5 15 46 22 46 3 0 -1 -11 -7 -25z m-35 -53 c-3 -12 -9 -19 -14 -16 -5 3 -3
14 3 24 15 24 19 21 11 -8z m-273 -2 c0 -5 -2 -10 -4 -10 -3 0 -8 5 -11 10 -3
6 -1 10 4 10 6 0 11 -4 11 -10z m258 -45 c-3 -3 -9 2 -12 12 -6 14 -5 15 5 6
7 -7 10 -15 7 -18z m-178 -35 c0 -5 -2 -10 -4 -10 -3 0 -8 5 -11 10 -3 6 -1
10 4 10 6 0 11 -4 11 -10z m150 -5 c0 -2 -6 -8 -13 -14 -10 -8 -14 -7 -14 2 0
8 6 14 14 14 7 0 13 -1 13 -2z"/>
<path d="M360 873 c0 -47 2 -84 4 -82 9 11 16 169 6 169 -6 0 -10 -34 -10 -87z"/>
<path d="M1221 936 c-21 -12 -22 -14 -5 -20 10 -4 15 -4 11 0 -4 4 1 13 11 20
22 17 14 17 -17 0z"/>
<path d="M400 930 c0 -6 7 -10 15 -10 8 0 15 2 15 4 0 2 -7 6 -15 10 -8 3 -15
1 -15 -4z"/>
<path d="M1271 926 c-20 -11 -21 -14 -7 -19 11 -4 15 -3 10 4 -4 7 0 9 14 5
11 -4 23 -2 27 3 4 7 -1 8 -11 4 -12 -4 -15 -3 -10 5 9 15 7 15 -23 -2z"/>
<path d="M1157 903 c-4 -3 -7 -11 -7 -17 0 -6 5 -5 12 2 6 6 9 14 7 17 -3 3
-9 2 -12 -2z"/>
<path d="M392 860 c0 -19 2 -27 5 -17 2 9 2 25 0 35 -3 9 -5 1 -5 -18z"/>
<path d="M1402 874 c10 -10 20 -15 24 -12 3 4 -5 12 -18 18 -22 12 -22 12 -6
-6z"/>
<path d="M1072 861 c-11 -7 -11 -9 0 -14 9 -3 15 1 15 9 0 8 -1 14 -1 14 -1 0
-7 -4 -14 -9z"/>
<path d="M1119 858 c-4 -15 -6 -38 -3 -38 2 0 8 9 14 20 7 14 7 20 0 20 -5 0
-10 -1 -11 -2z"/>
<path d="M1436 851 c-4 -5 2 -7 13 -4 10 3 22 0 25 -6 4 -6 12 -11 19 -11 14
0 -24 29 -40 30 -6 0 -14 -4 -17 -9z"/>
<path d="M1032 841 c-11 -7 -11 -9 0 -14 9 -3 15 1 15 9 0 8 -1 14 -1 14 -1 0
-7 -4 -14 -9z"/>
<path d="M1511 826 c2 -2 24 -16 49 -30 40 -23 41 -26 15 -21 -25 5 -27 4 -12
-5 10 -7 30 -9 45 -5 24 6 22 8 -33 36 -54 27 -74 35 -64 25z"/>
<path d="M945 800 c-3 -5 -1 -10 4 -10 6 0 11 5 11 10 0 6 -2 10 -4 10 -3 0
-8 -4 -11 -10z"/>
<path d="M381 784 c0 -11 3 -14 6 -6 3 7 2 16 -1 19 -3 4 -6 -2 -5 -13z"/>
<path d="M714 785 c11 -8 14 -15 8 -15 -7 0 -12 -6 -12 -13 0 -8 14 -13 35
-14 33 -1 43 6 28 20 -3 4 -12 2 -20 -5 -7 -6 -17 -7 -21 -3 -4 4 -1 10 6 12
10 4 8 9 -5 19 -10 7 -22 13 -28 13 -5 0 -1 -6 9 -14z"/>
<path d="M1520 790 c0 -5 5 -10 11 -10 5 0 7 5 4 10 -3 6 -8 10 -11 10 -2 0
-4 -4 -4 -10z"/>
<path d="M918 773 c7 -3 16 -2 19 1 4 3 -2 6 -13 5 -11 0 -14 -3 -6 -6z"/>
<path d="M870 760 c-13 -8 -13 -10 2 -10 9 0 20 5 23 10 8 13 -5 13 -25 0z"/>
<path d="M665 750 c3 -5 11 -10 16 -10 6 0 7 5 4 10 -3 6 -11 10 -16 10 -6 0
-7 -4 -4 -10z"/>
<path d="M371 724 c0 -11 3 -14 6 -6 3 7 2 16 -1 19 -3 4 -6 -2 -5 -13z"/>
<path d="M865 730 c3 -5 8 -10 11 -10 2 0 4 5 4 10 0 6 -5 10 -11 10 -5 0 -7
-4 -4 -10z"/>
<path d="M386 696 c-3 -13 -2 -34 2 -47 7 -17 9 -12 9 24 0 53 -2 57 -11 23z"/>
<path d="M803 708 c2 -7 12 -12 21 -10 10 2 16 -3 15 -10 -3 -24 1 -38 10 -38
15 0 3 44 -16 58 -9 6 -21 12 -26 12 -5 0 -7 -6 -4 -12z"/>
<path d="M800 659 c0 -5 5 -7 10 -4 6 3 10 8 10 11 0 2 -4 4 -10 4 -5 0 -10
-5 -10 -11z"/>
<path d="M422 555 c6 -14 13 -23 16 -21 7 7 -9 46 -18 46 -5 0 -4 -11 2 -25z"/>
<path d="M451 562 c8 -13 9 -24 2 -37 -8 -14 -5 -27 10 -53 12 -20 23 -30 25
-22 3 7 -1 16 -7 19 -7 4 -14 20 -17 35 -3 18 -1 25 6 21 13 -8 13 -2 -2 30
-6 14 -15 25 -20 25 -4 0 -3 -8 3 -18z"/>
<path d="M1441 514 c0 -11 3 -14 6 -6 3 7 2 16 -1 19 -3 4 -6 -2 -5 -13z"/>
<path d="M518 493 c7 -3 16 -2 19 1 4 3 -2 6 -13 5 -11 0 -14 -3 -6 -6z"/>
<path d="M512 459 c2 -6 8 -10 13 -10 5 0 11 4 13 10 2 6 -4 11 -13 11 -9 0
-15 -5 -13 -11z"/>
<path d="M540 435 c-7 -9 -10 -18 -7 -21 3 -3 10 4 17 15 13 25 8 27 -10 6z"/>
<path d="M500 430 c0 -5 5 -10 11 -10 5 0 7 5 4 10 -3 6 -8 10 -11 10 -2 0 -4
-4 -4 -10z"/>
</g>
</svg>
